<?xml version="1.0" standalone="no"?>
<!DOCTYPE svg PUBLIC "-//W3C//DTD SVG 20010904//EN"
 "http://www.w3.org/TR/2001/REC-SVG-20010904/DTD/svg10.dtd">
<svg version="1.0" xmlns="http://www.w3.org/2000/svg"
 width="192.000000pt" height="192.000000pt" viewBox="0 0 192.000000 192.000000"
 preserveAspectRatio="xMidYMid meet">
<metadata>
Created by potrace 1.11, written by Peter Selinger 2001-2013
</metadata>
<g transform="translate(0.000000,192.000000) scale(0.100000,-0.100000)"
fill="#000000" stroke="none">
<path d="M817 1909 c-144 -21 -311 -91 -428 -179 -423 -318 -512 -902 -204
-1336 24 -33 79 -94 123 -135 310 -290 778 -340 1145 -123 111 66 265 220 331
331 178 301 178 688 0 985 -93 154 -265 309 -425 381 -164 74 -363 102 -542
76z m-83 -586 c110 -40 198 -159 214 -292 18 -151 -17 -275 -100 -360 -73 -73
-107 -86 -228 -86 -97 0 -109 2 -152 28 -91 53 -149 149 -166 275 -29 205 59
382 215 438 54 19 159 17 217 -3z m779 -22 c58 -28 93 -77 108 -152 21 -100
-20 -186 -110 -231 -50 -26 -64 -28 -173 -28 l-118 0 0 -114 0 -113 40 -7 c36
-6 40 -9 40 -36 l0 -30 -135 0 -135 0 0 29 c0 27 4 31 43 38 l42 9 3 291 c3
322 9 292 -60 307 -23 5 -28 12 -28 37 l0 30 218 -3 c205 -3 220 -4 265 -27z"/>
<path d="M547 1245 c-51 -18 -83 -49 -115 -110 -22 -42 -27 -67 -30 -152 -5
-124 14 -198 68 -257 44 -49 84 -66 152 -66 101 1 179 60 212 162 24 75 22
212 -5 284 -47 124 -163 182 -282 139z"/>
<path d="M1220 1104 l0 -147 103 5 c165 9 203 42 198 176 -1 22 -12 44 -35 70
l-34 37 -116 3 -116 4 0 -148z"/>
</g>
</svg>
